HIERARCHY
ROOT SpineBase
{
  OFFSET 0.000000 0.000000 0.000000
  CHANNELS 6 Xposition Yposition Zposition Zrotation Xrotation Yrotation
  JOINT SpineMid
  {
    OFFSET 0.000000 31.530088 0.000000
    CHANNELS 3 Zrotation Xrotation Yrotation
    JOINT SpineShoulder
    {
      OFFSET -0.004266 23.427472 -0.883809
      CHANNELS 3 Zrotation Xrotation Yrotation
      JOINT Neck
      {
        OFFSET 0.049193 7.741865 -0.649990
        CHANNELS 3 Zrotation Xrotation Yrotation
        JOINT Head
        {
          OFFSET -4.894022 14.400233 -0.582827
          CHANNELS 3 Zrotation Xrotation Yrotation
          End Site
          {
            OFFSET 0 0 0
          }
        }
      }
      JOINT ShoulderLeft
      {
        OFFSET -16.469039 -5.903862 7.269709
        CHANNELS 3 Zrotation Xrotation Yrotation
        JOINT ElbowLeft
        {
          OFFSET -0.877668 -29.113680 3.675492
          CHANNELS 3 Zrotation Xrotation Yrotation
          JOINT WristLeft
          {
            OFFSET 0.470715 -23.843186 -3.762102
            CHANNELS 3 Zrotation Xrotation Yrotation
            JOINT HandLeft
            {
              OFFSET -0.010191 -5.245641 -1.821173
              CHANNELS 3 Zrotation Xrotation Yrotation
              JOINT HandTipLeft
              {
                OFFSET 0.974831 -3.665664 -1.312147
                CHANNELS 3 Zrotation Xrotation Yrotation
                End Site
                {
                  OFFSET 0 0 0
                }
              }
              JOINT ThumbLeft
              {
                OFFSET -1.594117 -1.862508 -1.154901
                CHANNELS 3 Zrotation Xrotation Yrotation
                End Site
                {
                  OFFSET 0 0 0
                }
              }
            }
          }
        }
      }
      JOINT ShoulderRight
      {
        OFFSET 14.456452 -3.551488 -9.544190
        CHANNELS 3 Zrotation Xrotation Yrotation
        JOINT ElbowRight
        {
          OFFSET 7.758854 -26.788879 -0.800487
          CHANNELS 3 Zrotation Xrotation Yrotation
          JOINT WristRight
          {
            OFFSET -0.942780 -22.741453 -5.126264
            CHANNELS 3 Zrotation Xrotation Yrotation
            JOINT HandRight
            {
              OFFSET -2.228196 -6.996698 -0.227688
              CHANNELS 3 Zrotation Xrotation Yrotation
              JOINT HandTipRight
              {
                OFFSET -0.094330 -6.430707 -0.566624
                CHANNELS 3 Zrotation Xrotation Yrotation
                End Site
                {
                  OFFSET 0 0 0
                }
              }
              JOINT ThumbRight
              {
                OFFSET -2.601261 0.892877 -1.504616
                CHANNELS 3 Zrotation Xrotation Yrotation
                End Site
                {
                  OFFSET 0 0 0
                }
              }
            }
          }
        }
      }
    }
  }
  JOINT HipLeft
  {
    OFFSET -6.590844 0.081546 -0.590188
    CHANNELS 3 Zrotation Xrotation Yrotation
    JOINT KneeLeft
    {
      OFFSET 3.619155 -34.284572 4.385214
      CHANNELS 3 Zrotation Xrotation Yrotation
      JOINT AnkleLeft
      {
        OFFSET 9.038120 -36.874316 8.141785
        CHANNELS 3 Zrotation Xrotation Yrotation
        JOINT FootLeft
        {
          OFFSET 1.399080 -9.039076 -5.382629
          CHANNELS 3 Zrotation Xrotation Yrotation
          End Site
          {
            OFFSET 0 0 0
          }
        }
      }
    }
  }
  JOINT HipRight
  {
    OFFSET 7.112413 1.629538 -6.656045
    CHANNELS 3 Zrotation Xrotation Yrotation
    JOINT KneeRight
    {
      OFFSET 7.269656 -31.880461 1.953352
      CHANNELS 3 Zrotation Xrotation Yrotation
      JOINT AnkleRight
      {
        OFFSET 4.467776 -40.602220 9.241338
        CHANNELS 3 Zrotation Xrotation Yrotation
        JOINT FootRight
        {
          OFFSET -4.097608 -8.116707 -2.603888
          CHANNELS 3 Zrotation Xrotation Yrotation
          End Site
          {
            OFFSET 0 0 0
          }
        }
      }
    }
  }
}
MOTION
Frames: 10
Frame Time: 0.033333
-22.048849 85.001148 340.517984 0.814118 1.901999 21.642085 0.045228 -0.335764 -21.613336 0.299586 -0.142943 0.066763 1.896192 -2.138012 -0.113831 0.000000 0.000000 0.000000 -71.216817 -14.648195 -20.163766 -1.957512 -16.148616 11.141527 2.097199 7.428162 22.746550 -18.802159 -7.300178 -7.686159 0.000000 0.000000 0.000000 0.000000 0.000000 0.000000 67.863301 58.779586 -21.886244 6.108164 -5.560337 -27.567399 2.747655 8.829584 -23.298196 -5.049760 -0.839815 25.622536 0.000000 0.000000 0.000000 0.000000 0.000000 0.000000 -5.316334 1.579450 -22.127574 2.798293 -0.163189 0.363478 11.028893 3.806119 -4.554324 0.000000 0.000000 0.000000 -3.364152 3.703539 -20.919712 1.481500 -4.748673 -1.309198 -0.828934 39.125696 -15.646571 0.000000 0.000000 0.000000
-22.404091 85.022168 340.350866 1.448081 0.774490 21.599569 -0.015372 -0.563539 -21.539464 0.272476 -0.229938 0.103077 3.289301 -2.705045 -0.728234 0.000000 0.000000 0.000000 -72.541891 -24.374608 -25.506172 0.128342 -24.733029 2.919282 0.063138 -4.781842 18.013053 -15.145644 5.105398 7.202019 0.000000 0.000000 0.000000 0.000000 0.000000 0.000000 73.949446 42.807967 -19.832923 7.556214 -4.517039 -26.784647 14.841492 10.395213 -12.255988 -18.488264 -2.185101 10.631116 0.000000 0.000000 0.000000 0.000000 0.000000 0.000000 -5.198519 2.473401 -21.969985 2.474502 0.053861 0.345267 9.811247 3.778351 -3.910826 0.000000 0.000000 0.000000 -3.047914 4.909490 -20.780091 0.755274 -5.190362 -1.497443 0.460674 41.486275 -17.160404 0.000000 0.000000 0.000000
-22.805699 84.989371 340.167202 2.005622 -0.396694 21.345758 -0.104290 -0.673229 -21.247273 0.222561 -0.271701 0.130377 4.639103 -3.102735 -1.266530 0.000000 0.000000 0.000000 -72.487382 -32.436368 -29.414128 2.944264 -29.975520 -3.909655 1.664392 -21.692524 -0.809160 -22.293601 20.139069 42.468331 0.000000 0.000000 0.000000 0.000000 0.000000 0.000000 75.376327 28.184024 -15.374710 9.828435 -5.409699 -23.847824 22.010136 11.527920 -1.963781 -26.988584 4.438993 -4.127591 0.000000 0.000000 0.000000 0.000000 0.000000 0.000000 -4.942454 3.313640 -21.591617 2.073232 0.242804 0.307055 6.163502 7.933944 -1.320056 0.000000 0.000000 0.000000 -2.801317 5.853950 -20.496716 0.109377 -5.215373 -1.582047 1.831928 42.514920 -18.285537 0.000000 0.000000 0.000000
-23.209587 84.893394 339.986434 2.436629 -1.484839 20.830896 -0.225932 -0.628422 -20.694600 0.159981 -0.249372 0.144681 5.690810 -3.292179 -1.669560 0.000000 0.000000 0.000000 -71.470682 -37.559457 -31.275882 5.460825 -34.419846 -10.082451 5.638935 -28.243095 -25.460345 -39.717346 11.069826 80.988848 0.000000 0.000000 0.000000 0.000000 0.000000 0.000000 74.840106 16.984380 -11.485170 11.626091 -7.909044 -19.316078 27.977618 12.909072 5.083623 -30.153018 12.360528 -16.243606 0.000000 0.000000 0.000000 0.000000 0.000000 0.000000 -4.631912 3.991419 -20.967781 1.709212 0.439022 0.276843 -0.427308 13.764653 3.572884 0.000000 0.000000 0.000000 -2.440024 6.826274 -19.923494 -0.476464 -5.362477 -1.681536 2.780103 41.359083 -18.239022 0.000000 0.000000 0.000000
-23.625811 84.756236 339.832753 2.663058 -2.389513 20.260339 -0.288315 -0.551049 -20.093411 0.119364 -0.254353 0.153111 6.909473 -3.754118 -2.060732 0.000000 0.000000 0.000000 -69.364242 -40.940732 -31.603505 8.480742 -39.716804 -17.087143 6.762269 -24.600760 -27.575768 -38.420040 -0.474841 84.203351 0.000000 0.000000 0.000000 0.000000 0.000000 0.000000 74.208907 8.610270 -8.695619 10.930822 -9.148823 -15.901599 33.089182 11.420580 17.866820 -27.007486 24.782433 -32.788168 0.000000 0.000000 0.000000 0.000000 0.000000 0.000000 -4.170807 4.440265 -20.313020 1.328720 0.595038 0.240119 -10.924673 22.707941 12.248646 0.000000 0.000000 0.000000 -1.986763 7.550205 -19.319905 -0.969513 -5.344443 -1.730950 2.337110 44.095905 -19.132227 0.000000 0.000000 0.000000
-23.996101 84.637244 339.723120 2.637075 -2.935687 19.875450 -0.310186 -0.357200 -19.702039 0.070232 -0.192556 0.144894 7.721330 -4.403428 -2.300608 0.000000 0.000000 0.000000 -67.319691 -43.840053 -32.049146 8.935285 -41.200654 -19.263779 5.624384 -21.130503 -18.427573 -33.736077 -1.682131 71.299016 0.000000 0.000000 0.000000 0.000000 0.000000 0.000000 72.555693 3.280371 -6.623240 12.398771 -9.005159 -14.486428 27.217024 14.941731 0.234201 -24.299457 10.698136 -16.194830 0.000000 0.000000 0.000000 0.000000 0.000000 0.000000 -3.643335 4.606860 -19.887814 1.062212 0.628466 0.202712 -18.478243 26.605720 18.547204 0.000000 0.000000 0.000000 -1.520438 7.846313 -18.944649 -1.203496 -5.174879 -1.695366 1.316908 43.934687 -18.491979 0.000000 0.000000 0.000000
-24.289543 84.564137 339.652408 2.521663 -3.222177 19.695462 -0.293068 -0.248932 -19.525376 0.048304 -0.151475 0.137057 7.390768 -4.485371 -2.393586 0.000000 0.000000 0.000000 -67.828430 -42.643330 -31.665108 9.017518 -42.810863 -20.720762 4.870106 -21.707451 -16.535027 -31.706392 -2.613946 70.129561 0.000000 0.000000 0.000000 0.000000 0.000000 0.000000 71.188867 2.044261 -6.129249 12.001303 -7.054859 -15.563476 30.038095 13.192976 6.892946 -24.749649 18.141023 -24.937429 0.000000 0.000000 0.000000 0.000000 0.000000 0.000000 -3.198274 4.634503 -19.693165 0.954041 0.514343 0.162452 -22.934080 27.463651 22.052958 0.000000 0.000000 0.000000 -1.130759 7.871843 -18.796653 -1.212774 -4.887803 -1.590719 0.640800 41.362646 -17.193294 0.000000 0.000000 0.000000
-24.439923 84.545505 339.603925 2.341330 -3.278032 19.844588 -0.239561 -0.029446 -19.689834 0.028632 -0.015917 0.121920 6.489433 -4.190628 -2.247308 0.000000 0.000000 0.000000 -70.474439 -41.761362 -32.978396 6.513572 -40.121655 -17.314842 3.420123 -23.922676 -12.739303 -29.535143 1.429067 69.544312 0.000000 0.000000 0.000000 0.000000 0.000000 0.000000 69.902671 5.437550 -6.958079 12.207410 -6.806616 -16.233686 27.736300 17.890843 -12.440627 -24.901239 3.697060 -6.181031 0.000000 0.000000 0.000000 0.000000 0.000000 0.000000 -2.928014 4.587371 -19.851050 0.767596 0.666953 0.165305 -23.878474 27.382401 22.839155 0.000000 0.000000 0.000000 -0.908746 7.765088 -18.976962 -0.876132 -4.638057 -1.436566 -0.953431 40.082272 -15.971675 0.000000 0.000000 0.000000
-24.405100 84.599647 339.601270 2.025189 -2.944009 20.274172 -0.164029 0.279835 -20.152583 0.027331 0.147975 0.098010 5.038561 -3.205831 -1.744325 0.000000 0.000000 0.000000 -74.181214 -37.954495 -33.394130 2.875978 -37.129007 -12.174263 -0.847429 -16.117548 17.154321 -19.999124 10.851049 36.078772 0.000000 0.000000 0.000000 0.000000 0.000000 0.000000 67.721588 12.325969 -8.304320 14.354952 -5.403087 -18.663997 13.895434 23.825725 -29.017716 -12.484255 -7.174724 15.729717 0.000000 0.000000 0.000000 0.000000 0.000000 0.000000 -2.846053 4.313442 -20.322494 0.899015 0.709295 0.200188 -21.401697 26.122049 20.628592 0.000000 0.000000 0.000000 -0.855289 7.497712 -19.412126 -0.100600 -4.625590 -1.257132 -3.517748 40.316416 -14.884479 0.000000 0.000000 0.000000
-24.341803 84.629867 339.579262 1.640272 -2.530588 20.740795 -0.107259 0.535147 -20.653773 0.034727 0.243090 0.073595 3.711991 -2.073191 -1.193242 0.000000 0.000000 0.000000 -77.421469 -31.244231 -31.430372 -1.042640 -33.249584 -5.384437 -5.117095 5.809336 42.040222 -19.548104 -0.555616 -5.354757 0.000000 0.000000 0.000000 0.000000 0.000000 0.000000 67.249187 21.371686 -10.498858 10.954374 -0.890248 -23.339217 4.443660 21.541797 -27.827198 2.477407 -7.111947 30.339287 0.000000 0.000000 0.000000 0.000000 0.000000 0.000000 -2.691961 3.868560 -20.838723 1.027615 0.838003 0.253872 -16.447138 22.017618 15.934561 0.000000 0.000000 0.000000 -0.862412 6.858911 -19.945831 0.704987 -4.169845 -0.984722 -5.879618 42.018142 -14.622382 0.000000 0.000000 0.000000
